<svg id="Layer_1" data-name="Layer 1" xmlns="http://www.w3.org/2000/svg" viewBox="0 0 64 64"><rect width="64" height="64" rx="9.69" style="fill:#3a3632"/><path d="M2.65,48,14.49,16h8.62L35,48H25.27l-1.63-5.54h-10L12.07,48ZM15.59,35.67h6.07L18.58,25.16Z" style="fill:#c74634"/><path d="M61.35,39.77v7.08a21.62,21.62,0,0,1-9.29,1.85q-7.56,0-11.72-4.47t-4.16-12.6a18,18,0,0,1,2-8.72,13.86,13.86,0,0,1,5.7-5.63,18.38,18.38,0,0,1,8.8-2,18.11,18.11,0,0,1,7.79,1.63v7.13a35.82,35.82,0,0,0-3.94-1,18.47,18.47,0,0,0-3.23-.29,7.59,7.59,0,0,0-5.92,2.4,9.24,9.24,0,0,0-2.18,6.45q0,4.67,2,7.17a7.35,7.35,0,0,0,6,2.51A19.53,19.53,0,0,0,57,41,33.92,33.92,0,0,0,61.35,39.77Z" style="fill:#c74634"/></svg>