<svg id="Layer_1" data-name="Layer 1" xmlns="http://www.w3.org/2000/svg" viewBox="0 0 64 64"><rect width="64" height="64" rx="9.69" style="fill:#3a3632"/><path d="M19.67,34.63V30.15H32.15V46.24A28.8,28.8,0,0,1,27,47.91a25.74,25.74,0,0,1-5.64.59q-8.09,0-12.39-4.37t-4.3-12.5A16.71,16.71,0,0,1,6.76,23a13.94,13.94,0,0,1,6.13-5.54,21.81,21.81,0,0,1,9.57-1.94,19,19,0,0,1,7.69,1.35v6.91a29.13,29.13,0,0,0-3.89-.85,25.59,25.59,0,0,0-3.46-.24,9.6,9.6,0,0,0-6.89,2.42,8.61,8.61,0,0,0-2.54,6.54q0,4.83,2.11,7.26T22,41.33a18.41,18.41,0,0,0,2.52-.22V36.54Z" style="fill:#c74634"/><path d="M36.11,46.76V39.37A32.8,32.8,0,0,0,46,41.15a8.23,8.23,0,0,0,3.5-.61,1.87,1.87,0,0,0,1.28-1.69A1.77,1.77,0,0,0,50,37.33a11.69,11.69,0,0,0-3.09-1.27l-3.17-1a13.87,13.87,0,0,1-6.31-3.64,8.32,8.32,0,0,1-2-5.76,8.93,8.93,0,0,1,3.44-7.52q3.44-2.65,9.73-2.65a26.72,26.72,0,0,1,4.53.37,24.22,24.22,0,0,1,4.47,1.24V24.5a30.39,30.39,0,0,0-9.13-1.61c-2.95,0-4.43.76-4.43,2.26a1.74,1.74,0,0,0,.84,1.46A15.25,15.25,0,0,0,48.2,28l3.12,1A16.39,16.39,0,0,1,56,31.2a7.4,7.4,0,0,1,2.55,3,10.63,10.63,0,0,1,.78,4.32,8.91,8.91,0,0,1-3.26,7.31q-3.26,2.65-9,2.65A30.11,30.11,0,0,1,36.11,46.76Z" style="fill:#c74634"/></svg>