<svg id="Layer_1" data-name="Layer 1" xmlns="http://www.w3.org/2000/svg" viewBox="0 0 64 64"><rect width="64" height="64" rx="9.69" style="fill:#3a3632"/><path d="M20.74,46.76V39.37a32.8,32.8,0,0,0,9.87,1.78,8.23,8.23,0,0,0,3.5-.61,1.87,1.87,0,0,0,1.28-1.69,1.77,1.77,0,0,0-.78-1.52,11.69,11.69,0,0,0-3.09-1.27l-3.17-1A13.87,13.87,0,0,1,22,31.43a8.32,8.32,0,0,1-2-5.76,8.93,8.93,0,0,1,3.44-7.52q3.42-2.65,9.73-2.65a26.52,26.52,0,0,1,4.52.37,24.1,24.1,0,0,1,4.48,1.24V24.5A30.39,30.39,0,0,0,33,22.89c-2.95,0-4.43.76-4.43,2.26a1.74,1.74,0,0,0,.84,1.46A15.25,15.25,0,0,0,32.83,28L36,29a16.52,16.52,0,0,1,4.72,2.18,7.4,7.4,0,0,1,2.55,3A10.63,10.63,0,0,1,44,38.54a8.91,8.91,0,0,1-3.26,7.31q-3.26,2.65-9,2.65A30.11,30.11,0,0,1,20.74,46.76Z" style="fill:#c74634"/></svg>